<?xml version="1.0" encoding="utf-8"?>
<!-- Generator: Adobe Illustrator 25.0.0, SVG Export Plug-In . SVG Version: 6.00 Build 0)  -->
<svg version="1.1" id="圖層_1" xmlns="http://www.w3.org/2000/svg" xmlns:xlink="http://www.w3.org/1999/xlink" x="0px" y="0px"
	 viewBox="0 0 11.5 8.9" style="enable-background:new 0 0 11.5 8.9;" xml:space="preserve">
<style type="text/css">
	.st0{fill:#EB674A;}
</style>
<g>
	<path class="st0" d="M10.2,8.9H1.3C0.6,8.9,0,8.3,0,7.5V1.3C0,0.6,0.6,0,1.3,0h8.8c0.7,0,1.3,0.6,1.3,1.3v6.2
		C11.5,8.3,10.9,8.9,10.2,8.9z M1.3,0.5c-0.5,0-0.8,0.4-0.8,0.8v6.2c0,0.5,0.4,0.8,0.8,0.8h8.8C10.6,8.4,11,8,11,7.5V1.3
		c0-0.5-0.4-0.8-0.8-0.8C10.2,0.5,1.3,0.5,1.3,0.5z"/>
	<polygon class="st0" points="5.8,5.9 0.5,0.7 0.8,0.4 5.8,5.2 10.7,0.4 11.1,0.7 	"/>
	<polygon class="st0" points="0.8,8.5 0.4,8.2 4,3.9 4.4,4.2 	"/>
	<polygon class="st0" points="10.9,8.5 7.3,4.2 7.7,3.9 11.3,8.2 	"/>
</g>
</svg>
