<?xml version="1.0" encoding="utf-8"?>
<!-- Generator: Adobe Illustrator 25.0.0, SVG Export Plug-In . SVG Version: 6.00 Build 0)  -->
<svg version="1.1" id="圖層_1" xmlns="http://www.w3.org/2000/svg" xmlns:xlink="http://www.w3.org/1999/xlink" x="0px" y="0px"
	 viewBox="0 0 12.4 12" style="enable-background:new 0 0 12.4 12;" xml:space="preserve">
<style type="text/css">
	.st0{fill:#E72410;}
	.st1{fill:none;stroke:#E72410;stroke-width:0.5;stroke-miterlimit:10;}
	.st2{fill:#040000;}
</style>
<g>
	<path class="st0" d="M10.4,3.6H9.8V1.2c0-0.4-0.3-0.7-0.7-0.7H3.3c-0.4,0-0.7,0.3-0.7,0.7v2.4H2V1.2C2,0.6,2.6,0,3.3,0h5.9
		c0.7,0,1.2,0.6,1.2,1.2V3.6z"/>
	<g>
		<path class="st0" d="M11.2,10.2H9.8V7.9c0-0.4-0.3-0.7-0.7-0.7H3.3c-0.4,0-0.7,0.3-0.7,0.7v2.3H1.2C0.6,10.2,0,9.6,0,8.9V4.5
			c0-0.7,0.6-1.2,1.2-1.2h10c0.7,0,1.2,0.6,1.2,1.2v4.4C12.4,9.6,11.9,10.2,11.2,10.2z M10.4,9.6h0.8c0.4,0,0.7-0.3,0.7-0.7V4.5
			c0-0.4-0.3-0.7-0.7-0.7h-10c-0.4,0-0.7,0.3-0.7,0.7v4.4c0,0.4,0.3,0.7,0.7,0.7h0.8V7.9c0-0.7,0.6-1.2,1.2-1.2h5.8
			c0.7,0,1.2,0.6,1.2,1.2V9.6z"/>
		<path class="st0" d="M9.1,12H3.3c-0.7,0-1.2-0.6-1.2-1.2V9.9h0.6v0.8c0,0.4,0.3,0.7,0.7,0.7h5.8c0.4,0,0.7-0.3,0.7-0.7V9.9h0.6
			v0.8C10.4,11.4,9.8,12,9.1,12z"/>
	</g>
	<rect x="3.9" y="8.4" class="st0" width="4.6" height="0.6"/>
	<rect x="3.9" y="9.9" class="st0" width="4.6" height="0.6"/>
</g>
</svg>
