<?xml version="1.0" encoding="utf-8"?>
<!-- Generator: Adobe Illustrator 25.0.0, SVG Export Plug-In . SVG Version: 6.00 Build 0)  -->
<svg version="1.1" id="圖層_1" xmlns="http://www.w3.org/2000/svg" xmlns:xlink="http://www.w3.org/1999/xlink" x="0px" y="0px"
	 viewBox="0 0 30.7 31" style="enable-background:new 0 0 30.7 31;" xml:space="preserve">
<style type="text/css">
	.st0{fill:#4A4A4A;}
</style>
<g>
	<path class="st0" d="M8.8,0c1.6,0,3,0.4,4.3,1.1C13.8,1,14.5,1,15.2,1c7.9,0,14.3,6.4,14.3,14.3c0,0.8-0.1,1.5-0.2,2.2
		c0.8,1.4,1.3,2.9,1.3,4.7c0,4.9-3.9,8.8-8.8,8.8c-1.8,0-3.5-0.5-4.9-1.5c-0.6,0.1-1.2,0.1-1.8,0.1c-7.9,0-14.3-6.4-14.3-14.3
		c0-0.8,0.1-1.5,0.2-2.3c-0.6-1.2-1-2.7-1-4.2C0,3.9,3.9,0,8.8,0 M8.8,1.3c-2,0-3.9,0.8-5.3,2.2C2,4.9,1.3,6.8,1.3,8.8
		c0,1.3,0.3,2.5,0.9,3.6l0.2,0.4l-0.1,0.4c-0.1,0.7-0.2,1.4-0.2,2.1c0,1.8,0.3,3.5,1,5.1s1.6,3,2.8,4.2c1.2,1.2,2.6,2.1,4.2,2.8
		c1.6,0.7,3.3,1,5.1,1c0.6,0,1.1,0,1.7-0.1l0.5-0.1l0.4,0.3c1.2,0.8,2.7,1.3,4.2,1.3c2,0,3.9-0.8,5.3-2.2s2.2-3.3,2.2-5.3
		c0-1.4-0.4-2.8-1.1-4l-0.2-0.4l0.1-0.5c0.1-0.7,0.2-1.4,0.2-2c0-1.8-0.3-3.5-1-5.1s-1.6-3-2.8-4.2c-1.2-1.2-2.6-2.1-4.2-2.8
		s-3.3-1-5.1-1c-0.6,0-1.3,0-1.9,0.1l-0.4,0.1l-0.4-0.2C11.4,1.6,10.1,1.3,8.8,1.3z"/>
	<path class="st0" d="M14.5,13.3l3,0.7c2.7,0.6,4.1,2.1,4.1,4.5c0,1.5-0.5,2.7-1.6,3.5c-1.1,0.9-2.7,1.4-4.8,1.4s-3.7-0.4-5-1.4
		c-1.1-0.8-1.6-1.6-1.6-2.6c0-0.4,0.1-0.8,0.4-1.1c0.3-0.3,0.6-0.4,1.1-0.4s1,0.2,1.4,0.7c0.7,0.8,1,1.2,1.2,1.4
		c0.6,0.5,1.4,0.7,2.5,0.7c0.9,0,1.6-0.2,2.1-0.7c0.5-0.4,0.7-0.9,0.7-1.4c0-0.8-0.5-1.4-1.5-1.6l-4-1c-2.6-0.7-3.8-2.1-3.8-4.3
		c0-1.6,0.7-2.8,2-3.7c1-0.7,2.4-1,4.1-1c1.5,0,2.9,0.3,4.1,1c1.3,0.7,2,1.6,2,2.6c0,0.4-0.2,0.8-0.5,1c-0.3,0.3-0.7,0.4-1.2,0.4
		c-0.4,0-0.8-0.2-1.2-0.6c-0.6-0.6-1-1-1.1-1.1c-0.6-0.4-1.4-0.6-2.3-0.6c-0.8,0-1.4,0.2-1.9,0.5C12.2,10.6,12,11,12,11.6
		C12,12.3,12.8,12.9,14.5,13.3z"/>
</g>
</svg>
