<?xml version="1.0" encoding="utf-8"?>
<!-- Generator: Adobe Illustrator 25.0.0, SVG Export Plug-In . SVG Version: 6.00 Build 0)  -->
<svg version="1.1" id="圖層_1" xmlns="http://www.w3.org/2000/svg" xmlns:xlink="http://www.w3.org/1999/xlink" x="0px" y="0px"
	 viewBox="0 0 11.6 10.9" style="enable-background:new 0 0 11.6 10.9;" xml:space="preserve">
<style type="text/css">
	.st0{fill:#E72410;}
	.st1{fill:none;stroke:#E72410;stroke-width:0.5;stroke-miterlimit:10;}
	.st2{fill:#040000;}
</style>
<g>
	<path class="st0" d="M7.4,10.9c-1.6,0-4.1,0-4.9-0.1c-0.7-0.1-1.2-0.3-1.5-0.7C0.6,9.6,0.4,9,0.5,8.2C0.7,6.1,2.1,4.5,4.3,4
		c2.3-0.6,4.8,0.3,6.1,2.2C10.9,7,11.2,8,11,9.1c-0.1,1.1-1.1,1.8-2.5,1.8C8.3,10.9,7.9,10.9,7.4,10.9z M4.4,4.2l0.1,0.3
		C2.5,5,1.3,6.4,1.1,8.3C1,8.9,1.1,9.4,1.4,9.7C1.6,10,2,10.2,2.5,10.2c1.1,0.1,5.1,0.1,6,0.1c1.1,0,1.8-0.5,1.9-1.3
		c0.1-1-0.1-1.8-0.6-2.6C8.8,4.7,6.5,3.9,4.4,4.5L4.4,4.2z M5.8,9.5c-1.2,0-2.2-1-2.2-2.2s1-2.2,2.2-2.2C7,5.1,8,6.1,8,7.3
		S7,9.5,5.8,9.5z M5.8,5.7c-0.9,0-1.6,0.7-1.6,1.6S4.9,9,5.8,9c0.9,0,1.6-0.7,1.6-1.6S6.7,5.7,5.8,5.7z"/>
	<path class="st0" d="M10.7,5.1c0,0-0.1,0-0.1,0C9.9,4.9,9.2,4.8,8.5,4.5C7.9,4.3,7.8,3.4,8,2.8c0-0.1,0-0.1,0.1-0.2
		C6.5,2.3,5,2.3,3.5,2.6c0,0,0,0,0,0c0,0,0,0,0,0C3.6,2.8,3.6,3,3.7,3.2l0,0.1c0.2,0.6-0.1,1.1-0.6,1.3C2.5,4.7,2,4.9,1.4,5
		c-0.6,0.2-1,0-1.2-0.6c-0.5-1.2-0.1-2.4,1-3.2C2.1,0.6,3,0.4,4,0.2c2.3-0.5,4.5-0.1,6.4,1.1v0c1.1,0.7,1.6,2.3,1,3.5
		C11.3,4.9,11,5.1,10.7,5.1z M5.6,1.8c1,0,1.9,0.1,2.9,0.4l0.3,0.1L8.7,2.7c0,0.1-0.1,0.2-0.1,0.3C8.4,3.4,8.5,3.9,8.7,4
		c0.7,0.3,1.4,0.4,2.1,0.6c0,0,0.1-0.1,0.1-0.1c0.5-0.9,0.1-2.2-0.8-2.7c-1.8-1.1-3.8-1.4-6-1C3.2,0.9,2.3,1.2,1.5,1.7
		C0.7,2.3,0.4,3.3,0.7,4.2C0.8,4.5,1,4.6,1.3,4.5C1.8,4.3,2.4,4.2,2.9,4c0.3-0.1,0.4-0.2,0.3-0.6l0-0.1C3.1,3.1,3,3,3,2.8
		c0-0.1-0.1-0.3,0-0.5C3.1,2.1,3.3,2,3.4,2C4.2,1.9,4.9,1.8,5.6,1.8z"/>
</g>
</svg>
