<?xml version="1.0" encoding="utf-8"?>
<!-- Generator: Adobe Illustrator 25.0.0, SVG Export Plug-In . SVG Version: 6.00 Build 0)  -->
<svg version="1.1" id="圖層_1" xmlns="http://www.w3.org/2000/svg" xmlns:xlink="http://www.w3.org/1999/xlink" x="0px" y="0px"
	 viewBox="0 0 32.6 31" style="enable-background:new 0 0 32.6 31;" xml:space="preserve">
<style type="text/css">
	.st0{fill:#4A4A4A;}
</style>
<g>
	<path class="st0" d="M15.5,31c-0.3,0-0.7-0.1-0.9-0.4c-0.3-0.4-0.4-0.9-0.2-1.5c0.4-1.3,0.3-2.1,0.3-2.1c0-0.1,0-0.3-0.1-0.5
		c-0.2-0.2-0.5-0.3-1-0.3C11.8,26.3,0,23.8,0,13.6C0.2,0.7,14.4,0,17.2,0v0.6V0c0.6,0,15.3,0.2,15.3,13.3c0,10-15.8,17.3-16.4,17.6
		C16,30.9,15.7,31,15.5,31z M15.9,27c0,0,0.1,1-0.4,2.4c-0.1,0.2-0.1,0.3-0.1,0.3s0.1-0.1,0.2-0.1c0.1,0,15.6-7.3,15.6-16.5
		c0-11.9-13.5-12-14.1-12l0,0c-2.6,0-15.8,0.6-16,12.4C1.3,22.8,12,25,13.5,25c0.9,0,1.5,0.2,2,0.7C16,26.3,15.9,26.9,15.9,27
		L15.9,27z"/>
	<g>
		<path class="st0" d="M10,16c0.1,0,0.3,0.1,0.4,0.2c0.1,0.1,0.2,0.3,0.2,0.5s-0.1,0.4-0.2,0.5c-0.1,0.1-0.2,0.1-0.4,0.1H7.4
			c-0.2,0-0.4-0.1-0.5-0.2c-0.1-0.2-0.2-0.4-0.2-0.6V9.8c0-0.2,0.1-0.3,0.2-0.4C7,9.2,7.1,9.2,7.3,9.2c0.2,0,0.4,0.1,0.5,0.2
			C7.9,9.4,8,9.6,8,9.8V16H10z"/>
		<path class="st0" d="M13.3,16.7c0,0.2-0.1,0.4-0.2,0.6c-0.1,0.1-0.3,0.2-0.5,0.2s-0.4-0.1-0.5-0.2S12,17,12,16.8V9.9
			c0-0.5,0.2-0.7,0.7-0.7c0.2,0,0.4,0.1,0.5,0.2c0.1,0.1,0.2,0.3,0.2,0.6L13.3,16.7L13.3,16.7z"/>
		<path class="st0" d="M16.5,16.8c0,0.2-0.1,0.3-0.2,0.4s-0.3,0.2-0.5,0.2s-0.4-0.1-0.5-0.2s-0.2-0.3-0.2-0.4V9.7
			c0-0.1,0-0.3,0.1-0.4c0.1-0.1,0.2-0.2,0.5-0.2c0.1,0,0.2,0,0.3,0.1s0.2,0.2,0.2,0.3l3.2,4.9V9.8c0-0.1,0.1-0.3,0.2-0.4
			s0.3-0.2,0.5-0.2s0.4,0.1,0.5,0.2c0.1,0.1,0.2,0.3,0.2,0.4v7.1c0,0.1,0,0.2-0.1,0.4c-0.1,0.1-0.2,0.2-0.5,0.2
			c-0.1,0-0.3,0-0.3-0.1s-0.2-0.2-0.2-0.3l-3.2-4.7C16.5,12.4,16.5,16.8,16.5,16.8z"/>
		<path class="st0" d="M24,16h2.5c0.3,0,0.4,0,0.6,0.1c0.1,0.1,0.2,0.3,0.2,0.5s-0.1,0.4-0.2,0.5s-0.3,0.1-0.6,0.1h-3.2
			c-0.2,0-0.4,0-0.5-0.1s-0.2-0.3-0.2-0.5V9.9c0-0.2,0.1-0.4,0.2-0.5s0.3-0.1,0.5-0.1h3.2c0.2,0,0.3,0,0.4,0.1s0.2,0.3,0.2,0.5
			s0,0.4-0.2,0.5c-0.1,0.1-0.3,0.1-0.5,0.1H24v1.9h2.4c0.2,0,0.4,0.1,0.5,0.2c0.1,0.1,0.1,0.3,0.1,0.5s0,0.4-0.1,0.5
			s-0.3,0.1-0.5,0.1H24V16z"/>
	</g>
</g>
</svg>
